<svg width="85" height="80" viewBox="0 0 85 80" fill="none" xmlns="http://www.w3.org/2000/svg">
<path fill-rule="evenodd" clip-rule="evenodd" d="M70.7442 14.9919C64.5748 8.45201 52.5126 8.05997 45.9337 15.5325L42.4175 19.5262L38.6596 15.7601C31.0519 8.13552 19.6199 8.95052 14.9743 14.7704L14.9129 14.8473L14.8486 14.9217C8.97064 21.7188 9.14984 32.3966 16.0919 38.4843L16.2349 38.6097L42.7662 65.7107L69.2413 38.6671L69.3216 38.592C75.9708 32.3724 76.4182 21.6323 70.7442 14.9919ZM42.0105 5.55445C52.9647 -2.96547 69.1564 -1.38024 78.1067 8.23047L78.1695 8.29785L78.2297 8.36751C87.4487 19.0283 86.7516 35.8908 76.2191 45.8287L42.7662 80L9.36667 45.8833C-1.95137 35.8094 -1.76163 18.9274 7.23932 8.44105C15.4591 -1.75968 31.0691 -2.18444 42.0105 5.55445Z" fill="#174463"/>
</svg>
