<svg width="34" height="41" viewBox="0 0 34 41" fill="none" xmlns="http://www.w3.org/2000/svg">
<path fill-rule="evenodd" clip-rule="evenodd" d="M21.7239 0.616651C20.1228 1.00405 18.8443 2.31795 18.5034 3.92638C18.4128 4.35368 18.3937 6.23749 18.3925 14.864L18.3912 25.2854L17.9267 25.6008C16.3799 26.6513 15.2258 28.2849 14.7393 30.1125C14.4716 31.118 14.4361 32.8468 14.6615 33.8967C15.3354 37.0354 17.627 39.4916 20.6208 40.2841C21.3011 40.4643 21.5663 40.4923 22.6548 40.4993C23.6205 40.5054 24.0477 40.4741 24.5247 40.3624C26.1879 39.9725 27.3921 39.2875 28.5794 38.0558C31.2765 35.258 31.7276 30.9036 29.6431 27.7872C29.0913 26.9624 28.4132 26.2544 27.5949 25.6493L26.9988 25.2085L26.9782 14.5126L26.9575 3.81678L26.7816 3.35044C26.0059 1.29398 23.8162 0.110417 21.7239 0.616651ZM23.474 2.18049C24.2935 2.42387 24.9844 3.05653 25.273 3.82773C25.43 4.24744 25.4321 4.39131 25.4364 14.9873C25.4397 23.0919 25.4637 25.7874 25.5342 25.9903C25.608 26.2027 25.7506 26.3328 26.2143 26.6105C26.9202 27.0333 28.0967 28.1896 28.4717 28.829C29.0866 29.8778 29.363 30.916 29.3627 32.1756C29.3623 33.9659 28.7334 35.6017 27.553 36.8824C26.3676 38.1685 24.875 38.8616 23.0851 38.957C18.8687 39.1819 15.4593 35.3991 16.127 31.2368C16.2446 30.5037 16.5996 29.5261 16.9821 28.8823C17.4284 28.1311 18.2787 27.2536 19.0715 26.7261C19.4301 26.4875 19.7757 26.2177 19.8396 26.1264C19.941 25.9816 19.9558 24.594 19.9558 15.2281C19.9558 5.00926 19.9627 4.47345 20.1004 4.03113C20.5569 2.56422 22.0353 1.75327 23.474 2.18049ZM7.32147 2.94826C5.4447 3.26321 3.92732 4.06837 2.62039 5.44282C-0.429454 8.65014 -0.429454 13.5344 2.62039 16.7418C4.33992 18.5501 6.68435 19.4793 9.10631 19.3124C12.6636 19.0675 15.6399 16.5917 16.5705 13.1033C16.7484 12.4366 16.7731 12.1913 16.7731 11.0923C16.7731 9.99329 16.7484 9.74796 16.5705 9.08127C15.6138 5.49531 12.5373 3.01154 8.88609 2.87761C8.30069 2.85618 7.71176 2.88278 7.32147 2.94826ZM10.1769 4.6048C10.7855 4.75978 11.8197 5.22776 12.3418 5.58449C13.6197 6.45771 14.6291 7.89067 15.0398 9.41454C15.2698 10.2678 15.2903 11.8342 15.0818 12.6178C14.5267 14.7042 13.2332 16.2695 11.3382 17.1482C10.3143 17.623 9.75907 17.7383 8.53405 17.7307C7.62977 17.725 7.37896 17.6943 6.78973 17.5172C4.83966 16.9308 3.38941 15.7068 2.55272 13.9408C2.0921 12.9686 1.93939 12.2592 1.93939 11.0923C1.93939 10.2944 1.97584 9.94041 2.10868 9.44943C2.82223 6.81241 4.93659 4.90482 7.61992 4.47697C8.20118 4.38435 9.58196 4.45335 10.1769 4.6048ZM29.013 4.52328C28.5662 4.77034 28.4951 5.36646 28.8682 5.73947L29.0968 5.96814H30.9061C32.9007 5.96814 33.0749 5.93395 33.2514 5.50759C33.3766 5.20538 33.2978 4.86203 33.0494 4.62851C32.8543 4.44513 32.8275 4.44239 31.0389 4.42401C29.5452 4.40868 29.1887 4.4262 29.013 4.52328ZM6.52578 6.0822C6.22678 6.21222 6.10888 6.41124 6.10888 6.78612C6.10888 7.01323 6.27387 7.31364 6.97373 8.36061C7.77341 9.557 7.8367 9.67904 7.81471 9.98218C7.79132 10.304 7.78522 10.3104 7.47793 10.333C7.19496 10.3537 7.04108 10.2745 5.87098 9.50536C5.15923 9.03754 4.49364 8.63301 4.39178 8.60641C3.86646 8.46896 3.34974 9.06813 3.52795 9.60816C3.59727 9.81805 3.7826 9.98398 4.45108 10.4344C4.91108 10.7445 5.31788 11.0252 5.35504 11.0581C5.39228 11.091 5.0156 11.388 4.51797 11.718C3.78604 12.2033 3.59687 12.3677 3.52733 12.5785C3.33918 13.1484 3.87765 13.7253 4.44576 13.5624C4.5739 13.5257 5.21086 13.1397 5.86128 12.7046C6.96856 11.9641 7.06893 11.9137 7.43693 11.9137H7.82997V12.2284C7.82997 12.4986 7.70863 12.7245 6.96942 13.8304C6.2511 14.905 6.10888 15.1669 6.10888 15.415C6.10888 15.9777 6.55996 16.3121 7.08513 16.1387C7.31904 16.0615 7.46017 15.9052 7.92142 15.2119C8.22668 14.7533 8.50025 14.3512 8.52951 14.3185C8.55877 14.2858 8.8555 14.6634 9.18884 15.1577C9.71534 15.9383 9.83394 16.0681 10.0906 16.145C10.4833 16.2627 10.8459 16.0846 11.0091 15.6941C11.1678 15.3145 11.1155 15.1947 10.184 13.8019C9.47392 12.7401 9.39459 12.586 9.39459 12.2676V11.9137H9.76658C10.1081 11.9137 10.2377 11.9798 11.3508 12.7217C12.0175 13.1661 12.6477 13.5515 12.7513 13.5782C13.0251 13.6486 13.4334 13.4488 13.5748 13.1754C13.8463 12.6503 13.6779 12.3904 12.6074 11.6825C12.1312 11.3677 11.7415 11.1021 11.7415 11.0923C11.7415 11.0825 12.1312 10.8169 12.6074 10.502C13.6779 9.79419 13.8463 9.53431 13.5748 9.00914C13.4332 8.73533 13.0245 8.53584 12.7513 8.60711C12.6477 8.6341 11.9887 9.03707 11.2868 9.50263C10.2058 10.2196 9.96349 10.3491 9.70259 10.3491H9.39459V9.95605C9.39459 9.58813 9.44497 9.48768 10.184 8.38267C11.1155 6.98992 11.1678 6.87007 11.0091 6.49049C10.8467 6.10168 10.483 5.92198 10.0943 6.03847C9.84247 6.11388 9.71886 6.2493 9.19283 7.02598C8.85746 7.52103 8.55908 7.8992 8.52975 7.86634C8.50041 7.83348 8.2273 7.43224 7.92291 6.97482C7.49545 6.33238 7.31231 6.12311 7.11861 6.0556C6.81476 5.9496 6.83229 5.94881 6.52578 6.0822ZM29.0772 7.65222C28.7564 7.81956 28.6448 7.99597 28.642 8.34066C28.6401 8.56925 28.6935 8.69411 28.8682 8.86872L29.0968 9.09739H30.1617C31.3786 9.09739 31.5543 9.03527 31.6986 8.55384C31.8134 8.17035 31.6347 7.80157 31.2576 7.64393C30.8814 7.48676 29.3835 7.49247 29.0772 7.65222ZM22.2758 10.0466C21.9059 10.2615 21.9116 10.1226 21.9116 18.9544C21.9116 25.5264 21.8913 27.2574 21.8138 27.2779C20.5795 27.6065 19.8579 27.9893 19.1338 28.6997C18.5676 29.2553 18.1509 29.9304 17.8623 30.7599C17.6826 31.2763 17.6557 31.4773 17.6573 32.293C17.6588 33.0972 17.689 33.3223 17.8678 33.8637C18.5175 35.8303 20.2784 37.2121 22.3554 37.3853C24.3492 37.5516 26.3755 36.388 27.2729 34.5617C27.6473 33.7996 27.7847 33.2017 27.7871 32.3239C27.7911 30.8569 27.3428 29.7773 26.2954 28.732C25.4774 27.9158 24.7867 27.5337 23.6914 27.2916L23.4762 27.2441V18.8417V10.4393L23.2737 10.1986C23.1063 9.99971 23.0147 9.95832 22.7456 9.96028C22.5665 9.96161 22.3552 10.0004 22.2758 10.0466ZM28.842 10.981C28.5501 11.3279 28.5644 11.7342 28.8792 12.036L29.1188 12.2658L30.7763 12.2902C32.7105 12.3187 32.9736 12.269 33.2087 11.8305C33.3864 11.4989 33.3383 11.2074 33.0599 10.9291L32.8711 10.7402H30.9578H29.0446L28.842 10.981ZM28.8682 14.0982C28.4574 14.509 28.6058 15.1497 29.1606 15.3607C29.4683 15.4777 30.9511 15.451 31.2576 15.323C31.6347 15.1653 31.8134 14.7965 31.6986 14.413C31.5543 13.9316 31.3786 13.8695 30.1617 13.8695H29.0968L28.8682 14.0982ZM28.8682 17.2274C28.608 17.4875 28.556 17.94 28.7537 18.2223C28.9753 18.5386 29.2224 18.5731 31.085 18.548C32.8216 18.5246 32.8551 18.5211 33.0494 18.3384C33.158 18.2362 33.2689 18.053 33.2956 17.9313C33.3589 17.6432 33.1506 17.204 32.8957 17.0879C32.7675 17.0294 32.0792 16.9987 30.8985 16.9987H29.0968L28.8682 17.2274ZM23.6705 28.9041C24.2085 29.0421 24.7429 29.3617 25.1986 29.8182C27.2327 31.8558 26.1074 35.299 23.2471 35.7895C22.1935 35.9701 21.0186 35.582 20.2288 34.7921C18.9087 33.472 18.8456 31.3059 20.0886 29.9765C21.0822 28.914 22.2941 28.5511 23.6705 28.9041Z" fill="#003154"/>
</svg>
