<svg width="17" height="14" viewBox="0 0 17 14" fill="none" xmlns="http://www.w3.org/2000/svg">
<path d="M2.00039 0.999902C1.44811 0.999902 1.00039 1.44762 1.00039 1.9999V11.9999C1.00039 12.5522 1.44811 12.9999 2.00039 12.9999H15.0004C15.5527 12.9999 16.0004 12.5522 16.0004 11.9999V1.9999C16.0004 1.44762 15.5527 0.999902 15.0004 0.999902H2.00039ZM7.90039 8.1749C8.07382 8.30393 8.28423 8.37361 8.50039 8.37361C8.71655 8.37361 8.92696 8.30393 9.10039 8.1749L9.83373 7.6249L15.0004 11.4999V11.9999H2.00039V11.4999L7.16705 7.6249L7.90039 8.1749ZM8.50039 7.3749L2.00039 2.4999V1.9999H15.0004V2.4999L8.50039 7.3749ZM2.00039 3.7499L6.33373 6.9999L2.00039 10.2499V3.7499ZM15.0004 10.2499L10.667 6.9999L15.0004 3.7499V10.2499Z" fill="#003154"/>
<path fill-rule="evenodd" clip-rule="evenodd" d="M2.00039 1.0999C1.50333 1.0999 1.10039 1.50285 1.10039 1.9999V11.9999C1.10039 12.497 1.50333 12.8999 2.00039 12.8999H15.0004C15.4974 12.8999 15.9004 12.497 15.9004 11.9999V1.9999C15.9004 1.50285 15.4974 1.0999 15.0004 1.0999H2.00039ZM0.900391 1.9999C0.900391 1.39239 1.39288 0.899902 2.00039 0.899902H15.0004C15.6079 0.899902 16.1004 1.39239 16.1004 1.9999V11.9999C16.1004 12.6074 15.6079 13.0999 15.0004 13.0999H2.00039C1.39288 13.0999 0.900391 12.6074 0.900391 11.9999V1.9999ZM1.90039 1.8999H15.1004V2.5499L8.50039 7.4999L1.90039 2.5499V1.8999ZM2.10039 2.0999V2.4499L8.50039 7.2499L14.9004 2.4499V2.0999H2.10039ZM1.90039 3.5499L6.5004 6.9999L1.90039 10.4499V3.5499ZM15.1004 3.5499V10.4499L10.5004 6.9999L15.1004 3.5499ZM2.10039 3.9499V10.0499L6.16707 6.9999L2.10039 3.9499ZM10.8337 6.9999L14.9004 10.0499V3.9499L10.8337 6.9999ZM7.16705 7.4999L7.96008 8.09467C8.11623 8.21079 8.3058 8.27361 8.50039 8.27361C8.69499 8.27361 8.8844 8.2109 9.04055 8.09478L9.83373 7.4999L15.1004 11.4499V12.0999H1.90039V11.4499L7.16705 7.4999ZM7.16705 7.7499L2.10039 11.5499V11.8999H14.9004V11.5499L9.83373 7.7499L9.16039 8.2549C8.9697 8.39676 8.73806 8.47361 8.50039 8.47361C8.26272 8.47361 8.03139 8.39699 7.8407 8.25514L7.16705 7.7499Z" fill="#003154"/>
</svg>
